<svg width="240" height="152" viewBox="0 0 240 152" fill="none" xmlns="http://www.w3.org/2000/svg">
<path d="M0 12.8638C0 6.23636 5.37258 0.86377 12 0.86377H228C234.627 0.86377 240 6.23635 240 12.8638V152H0V12.8638Z" fill="white"/>
<circle cx="24" cy="24.7729" r="8" fill="#D9D9D9"/>
<rect x="40" y="16.7729" width="160" height="16" rx="8" fill="#D9D9D9"/>
<circle cx="24" cy="72.5" r="8" fill="#D9D9D9"/>
<rect x="40" y="64.5" width="160" height="16" rx="8" fill="#D9D9D9"/>
<circle cx="24" cy="120.228" r="8" fill="#D9D9D9"/>
<rect x="40" y="112.228" width="160" height="16" rx="8" fill="#D9D9D9"/>
<rect x="40" y="40.6367" width="160" height="16" rx="8" fill="#D9D9D9"/>
<circle cx="216" cy="48.6367" r="8" fill="#D9D9D9"/>
<rect x="40" y="88.3638" width="160" height="16" rx="8" fill="#D9D9D9"/>
<circle cx="216" cy="96.3638" r="8" fill="#D9D9D9"/>
</svg>
