<svg width="40" height="40" viewBox="0 0 40 40" fill="none" xmlns="http://www.w3.org/2000/svg">
<path d="M8.125 22.5H5.625C5.29348 22.5 4.97554 22.6317 4.74112 22.8661C4.5067 23.1005 4.375 23.4185 4.375 23.75V32.5C4.375 32.8315 4.5067 33.1495 4.74112 33.3839C4.97554 33.6183 5.29348 33.75 5.625 33.75H8.125C9.61684 33.75 11.0476 33.1574 12.1025 32.1025C13.1574 31.0476 13.75 29.6168 13.75 28.125C13.75 26.6332 13.1574 25.2024 12.1025 24.1475C11.0476 23.0926 9.61684 22.5 8.125 22.5ZM8.125 31.25H6.875V25H8.125C8.9538 25 9.74866 25.3292 10.3347 25.9153C10.9208 26.5013 11.25 27.2962 11.25 28.125C11.25 28.9538 10.9208 29.7487 10.3347 30.3347C9.74866 30.9208 8.9538 31.25 8.125 31.25ZM34.6141 30.4828C34.8536 30.712 34.9922 31.0269 34.9995 31.3583C35.0069 31.6897 34.8823 32.0105 34.6531 32.25C34.2179 32.7185 33.6915 33.0932 33.1064 33.3512C32.5212 33.6091 31.8895 33.7448 31.25 33.75C28.4922 33.75 26.25 31.2266 26.25 28.125C26.25 25.0234 28.4922 22.5 31.25 22.5C31.8895 22.5052 32.5212 22.6409 33.1064 22.8988C33.6915 23.1568 34.2179 23.5315 34.6531 24C34.8773 24.2404 34.9977 24.5595 34.9883 24.8881C34.9789 25.2167 34.8405 25.5283 34.603 25.7556C34.3654 25.9828 34.048 26.1074 33.7193 26.1022C33.3906 26.0971 33.0772 25.9627 32.8469 25.7281C32.644 25.5048 32.3978 25.3251 32.1233 25.2C31.8487 25.0748 31.5516 25.0068 31.25 25C29.8719 25 28.75 26.4062 28.75 28.125C28.75 29.8438 29.8719 31.25 31.25 31.25C31.5516 31.2432 31.8487 31.1752 32.1233 31.05C32.3978 30.9249 32.644 30.7452 32.8469 30.5219C33.0761 30.2824 33.391 30.1437 33.7224 30.1364C34.0538 30.1291 34.3745 30.2537 34.6141 30.4828ZM20 22.5C17.2422 22.5 15 25.0234 15 28.125C15 31.2266 17.2422 33.75 20 33.75C22.7578 33.75 25 31.2266 25 28.125C25 25.0234 22.7578 22.5 20 22.5ZM20 31.25C18.6219 31.25 17.5 29.8438 17.5 28.125C17.5 26.4062 18.6219 25 20 25C21.3781 25 22.5 26.4062 22.5 28.125C22.5 29.8438 21.3781 31.25 20 31.25ZM7.5 18.75C7.83152 18.75 8.14946 18.6183 8.38388 18.3839C8.6183 18.1495 8.75 17.8315 8.75 17.5V6.25H22.5V13.75C22.5 14.0815 22.6317 14.3995 22.8661 14.6339C23.1005 14.8683 23.4185 15 23.75 15H31.25V17.5C31.25 17.8315 31.3817 18.1495 31.6161 18.3839C31.8505 18.6183 32.1685 18.75 32.5 18.75C32.8315 18.75 33.1495 18.6183 33.3839 18.3839C33.6183 18.1495 33.75 17.8315 33.75 17.5V13.75C33.7501 13.5858 33.7179 13.4232 33.6552 13.2714C33.5924 13.1197 33.5004 12.9818 33.3844 12.8656L24.6344 4.11563C24.5182 3.99958 24.3803 3.90756 24.2286 3.84483C24.0768 3.78209 23.9142 3.74987 23.75 3.75H8.75C8.08696 3.75 7.45107 4.01339 6.98223 4.48223C6.51339 4.95107 6.25 5.58696 6.25 6.25V17.5C6.25 17.8315 6.3817 18.1495 6.61612 18.3839C6.85054 18.6183 7.16848 18.75 7.5 18.75ZM25 8.01719L29.4828 12.5H25V8.01719Z" fill="#1D43FF"/>
</svg>
